<svg width="600" height="600" viewBox="0 0 600 600" fill="none" xmlns="http://www.w3.org/2000/svg">
<rect width="600" height="600" rx="75" fill="#FFD505"/>
<rect x="147" y="42" width="8" height="168" rx="4" fill="black"/>
<rect x="147" y="305" width="8" height="8" rx="4" fill="black"/>
<rect x="160" y="43" width="8" height="166" rx="4" fill="black"/>
<rect x="160" y="298" width="8" height="67" rx="4" fill="black"/>
<rect x="173" y="45" width="8" height="163" rx="4" fill="black"/>
<rect x="173" y="292" width="8" height="129" rx="4" fill="black"/>
<rect x="186" y="47" width="8" height="161" rx="4" fill="black"/>
<rect x="186" y="285" width="8" height="188" rx="4" fill="black"/>
<rect x="199" y="49" width="8" height="158" rx="4" fill="black"/>
<rect x="199" y="279" width="8" height="168" rx="4" fill="black"/>
<rect x="212" y="52" width="8" height="154" rx="4" fill="black"/>
<rect x="212" y="273" width="8" height="148" rx="4" fill="black"/>
<rect x="225" y="56" width="8" height="149" rx="4" fill="black"/>
<rect x="225" y="266" width="8" height="130" rx="4" fill="black"/>
<rect x="238" y="60" width="8" height="144" rx="4" fill="black"/>
<rect x="238" y="260" width="8" height="136" rx="4" fill="black"/>
<rect x="251" y="65" width="8" height="138" rx="4" fill="black"/>
<rect x="251" y="253" width="8" height="155" rx="4" fill="black"/>
<rect x="264" y="70" width="8" height="132" rx="4" fill="black"/>
<rect x="264" y="248" width="8" height="170" rx="4" fill="black"/>
<rect x="277" y="77" width="8" height="124" rx="4" fill="black"/>
<rect x="277" y="241" width="8" height="188" rx="4" fill="black"/>
<rect x="290" y="85" width="8" height="115" rx="4" fill="black"/>
<rect x="290" y="235" width="8" height="205" rx="4" fill="black"/>
<rect x="303" y="95" width="8" height="104" rx="4" fill="black"/>
<rect x="303" y="228" width="8" height="64" rx="4" fill="black"/>
<rect x="316" y="108" width="8" height="90" rx="4" fill="black"/>
<rect x="316" y="222" width="8" height="36" rx="4" fill="black"/>
<rect x="329" y="130" width="8" height="67" rx="4" fill="black"/>
<rect x="329" y="216" width="8" height="12" rx="4" fill="black"/>
<rect x="342" y="150" width="8" height="40" rx="4" fill="black"/>
<rect x="342" y="412" width="8" height="72" rx="4" fill="black"/>
<rect x="303" y="347" width="8" height="104" rx="4" fill="black"/>
<rect x="316" y="376" width="8" height="86" rx="4" fill="black"/>
<rect x="329" y="396" width="8" height="77" rx="4" fill="black"/>
<rect x="355" y="429" width="8" height="66" rx="4" fill="black"/>
<rect x="368" y="445" width="8" height="60" rx="4" fill="black"/>
<rect x="381" y="462" width="8" height="54" rx="4" fill="black"/>
<rect x="394" y="478" width="8" height="50" rx="4" fill="black"/>
<rect x="407" y="493" width="8" height="45" rx="4" fill="black"/>
<rect x="420" y="509" width="8" height="39" rx="4" fill="black"/>
<rect x="433" y="526" width="8" height="29" rx="4" fill="black"/>
<rect x="446" y="546" width="8" height="13" rx="4" fill="black"/>
</svg>
